<?xml version="1.0" standalone="no"?>
<!DOCTYPE svg PUBLIC "-//W3C//DTD SVG 1.1//EN" "http://www.w3.org/Graphics/SVG/1.1/DTD/svg11.dtd" >
<svg xmlns="http://www.w3.org/2000/svg">
<metadata></metadata>
<defs>
<font id="foobar_proregular" horiz-adv-x="1138" >
<font-face units-per-em="2048" ascent="1638" descent="-410" />
<missing-glyph horiz-adv-x="569" />
<glyph horiz-adv-x="2048" />
<glyph horiz-adv-x="2048" />
<glyph unicode="&#xd;" horiz-adv-x="2048" />
<glyph unicode=" "  horiz-adv-x="569" />
<glyph unicode="&#x09;" horiz-adv-x="569" />
<glyph unicode="&#xa0;" horiz-adv-x="569" />
<glyph unicode="!" horiz-adv-x="569" d="M162 104q0 68 27 95.5t94 27.5t95 -27.5t28 -95.5q0 -67 -27.5 -93.5t-95.5 -26.5t-94.5 26.5t-26.5 93.5zM178 1067v401h209v-401l-51 -713h-107z" />
<glyph unicode="&#x22;" horiz-adv-x="727" d="M127 1208v260h168v-260l-31 -262h-106zM430 1208v260h170v-260l-31 -262h-108z" />
<glyph unicode="#" d="M45 420l12 135h207l51 315h-231l10 136h244l70 430h141l-236 -1444h-139l68 428h-197zM526 420l21 135h133l51 315h-131l23 136h131l69 430h142l-70 -430h199l-13 -136h-209l-51 -315h234l-13 -135h-243l-70 -428h-139l67 428h-131z" />
<glyph unicode="$" d="M70 426h180q8 -98 27.5 -159t60 -95t93 -45.5t136.5 -11.5q176 0 243 57t67 199q0 137 -70.5 197t-239.5 89q-251 43 -360 141.5t-109 282.5q0 68 12 124t41.5 107t76 85.5t120 55.5t168.5 22v116h100v-116q99 -6 166.5 -25t121.5 -60.5t82.5 -113.5t35.5 -180h-178 q-19 138 -75 183.5t-202 45.5q-164 0 -226 -52.5t-62 -178.5q0 -111 62 -173t226 -90q259 -43 375.5 -141.5t116.5 -283.5q0 -228 -111 -332t-332 -109v-190h-100v190q-123 9 -204 35t-136.5 79.5t-79.5 137.5t-26 209z" />
<glyph unicode="%" horiz-adv-x="1820" d="M94 1087q0 183 82 271t254 88q171 0 254.5 -87.5t83.5 -271.5q0 -187 -84 -275.5t-252 -88.5q-169 0 -253.5 88.5t-84.5 275.5zM244 1083q0 -118 45.5 -170.5t140.5 -52.5q100 0 145.5 55.5t45.5 169.5q0 116 -46 170t-143 54q-98 0 -143 -55t-45 -171zM444 -43l807 1499 h123l-807 -1499h-123zM1053 336q0 184 82 272t254 88q171 0 254 -87.5t83 -272.5q0 -187 -84 -275t-253 -88t-252.5 88t-83.5 275zM1200 334q0 -118 46.5 -170.5t142.5 -52.5q99 0 144.5 55t45.5 170t-46 169t-142 54q-99 0 -145 -55t-46 -170z" />
<glyph unicode="&#x26;" horiz-adv-x="1366" d="M90 436q0 70 16 127t37.5 91t57 63t60 41.5t61.5 27.5q-50 28 -82.5 59.5t-49 68t-22.5 72t-6 83.5q0 207 101.5 303t338.5 96h260v-172h-174q-65 0 -104 -2t-80 -9t-63.5 -21.5t-41.5 -38.5t-26.5 -60.5t-7.5 -87.5q0 -46 7 -80.5t18.5 -58.5t33.5 -40.5t43.5 -26 t59 -14t69.5 -6t84 -1.5h135v-172h-199q-70 0 -116 -5t-89 -20t-66.5 -42.5t-37.5 -73.5t-14 -113q0 -145 66.5 -198.5t228.5 -53.5h370v895h197v-217h150v-172h-150v-678h-547q-269 0 -393.5 108.5t-124.5 327.5z" />
<glyph unicode="'" horiz-adv-x="391" d="M111 1208v260h168v-260l-31 -262h-107z" />
<glyph unicode="(" horiz-adv-x="681" d="M133 535q0 249 84.5 466t263.5 467h127q-169 -284 -227.5 -477t-58.5 -463q0 -134 16 -244t56 -223.5t86.5 -210.5t127.5 -247h-123q-87 125 -145 223t-108.5 213.5t-74.5 237.5t-24 258z" />
<glyph unicode=")" horiz-adv-x="681" d="M70 1468h125q121 -175 192 -305.5t115.5 -289.5t44.5 -332q0 -256 -87 -476t-261 -462h-127q75 133 120.5 226t87 209.5t60 239.5t18.5 269q0 111 -12.5 207.5t-32 172t-58.5 167t-74.5 162.5t-97.5 188q-9 16 -13 24z" />
<glyph unicode="*" horiz-adv-x="796" d="M76 1204l41 123l221 -84l-6 234h131l-8 -234l221 84l43 -123l-232 -63l150 -189l-107 -75l-133 200l-133 -200l-106 75l147 189z" />
<glyph unicode="+" horiz-adv-x="1196" d="M90 508v158h430v426h156v-426h428v-158h-428v-428h-156v428h-430z" />
<glyph unicode="," horiz-adv-x="569" d="M162 104q0 68 27 95.5t94 27.5q43 0 68.5 -9t37 -31.5t14.5 -44.5t3 -64q0 -193 -44.5 -262.5t-171.5 -69.5v107q52 0 72.5 25.5t20.5 105.5q-68 0 -94.5 26.5t-26.5 93.5z" />
<glyph unicode="-" horiz-adv-x="681" d="M80 463v182h520v-182h-520z" />
<glyph unicode="." horiz-adv-x="569" d="M162 104q0 68 27 95.5t94 27.5t95 -27.5t28 -95.5q0 -67 -27.5 -93.5t-95.5 -26.5t-94.5 26.5t-26.5 93.5z" />
<glyph unicode="/" horiz-adv-x="569" d="M-23 -66l476 1534h139l-475 -1534h-140z" />
<glyph unicode="0" d="M80 707q0 196 23 330t78.5 229.5t150.5 139.5t237 44q141 0 236 -44t150.5 -139t78.5 -229t23 -331t-23 -330.5t-79 -229t-151 -139t-237 -43.5q-141 0 -235 43t-150 138t-79 229t-23 332zM268 709q0 -144 11.5 -246t33.5 -169t60 -105t84 -53t112 -15q65 0 111 15 t83.5 53t59.5 105t33.5 169.5t11.5 247.5q0 144 -11.5 245t-33 167t-59 103.5t-83.5 52.5t-112 15t-112 -14.5t-84 -52t-60 -104t-33.5 -168t-11.5 -246.5z" />
<glyph unicode="1" d="M250 0v172h291v1006l-291 -144v154l344 262h127v-1278h291v-172h-762z" />
<glyph unicode="2" d="M55 0q0 86 15 153t52.5 134.5t104 131.5t168.5 132l189 125q86 57 132.5 92.5t78.5 76.5t41.5 80.5t9.5 100.5q0 138 -60 203t-211 65q-92 0 -152 -22.5t-91.5 -69.5t-44 -101t-15.5 -136h-180q2 118 27.5 205t67 140t104.5 85t129 43.5t151 11.5q246 0 354.5 -101 t108.5 -325q0 -61 -7 -108t-27.5 -90t-45.5 -75.5t-72.5 -72t-97 -73.5t-129.5 -85l-145 -92q-118 -75 -168.5 -136.5t-67.5 -119.5h760v-172h-979z" />
<glyph unicode="3" d="M76 422h184q9 -86 24 -137t46.5 -90.5t85 -55.5t137.5 -16q172 0 245.5 68.5t73.5 209.5q0 156 -79 216.5t-240 60.5h-92v151h98q121 0 186.5 54.5t65.5 191.5q0 114 -56.5 166.5t-193.5 52.5q-49 0 -87 -7t-65.5 -18t-47.5 -31.5t-32.5 -40.5t-22 -53t-14 -61.5 t-9.5 -72.5h-179q6 88 22 153.5t48.5 121.5t83 91t127 54.5t180.5 19.5q232 0 333 -94.5t101 -282.5q0 -127 -44 -203.5t-144 -103.5q126 -26 188 -108t62 -242q0 -215 -119.5 -332t-386.5 -117q-106 0 -184.5 19.5t-131 55.5t-86.5 94t-51.5 126t-25.5 160z" />
<glyph unicode="4" d="M43 356v166q281 502 664 926h208q-214 -250 -365 -462t-308 -478h432v344h180v-344h207v-152h-207v-356h-180v356h-631z" />
<glyph unicode="5" d="M74 367h186q15 -139 76.5 -192.5t208.5 -53.5q165 0 244 71.5t79 256.5q0 177 -76 257t-239 80q-63 0 -110 -11t-79 -33t-53 -48t-39 -63l-149 24l117 766h739v-172h-602l-66 -387q107 80 281 80q221 0 343 -123t122 -364q0 -490 -527 -490q-216 0 -325.5 92t-130.5 310z " />
<glyph unicode="6" d="M78 670q0 193 27 333.5t87.5 243t162.5 153t247 50.5q199 0 303 -94.5t121 -282.5h-176q-13 60 -29 97.5t-43 67.5t-69 43t-103 13q-58 0 -98 -7t-82 -29t-69 -64.5t-49 -110.5t-32 -171t-10 -242q0 -105 8 -187t21.5 -139.5t36.5 -98t47 -64t59.5 -37t67.5 -17.5t76 -4 q146 0 215 83t69 247q0 161 -68 240t-216 79q-102 0 -172 -39v160q75 35 196 35q223 0 336 -114t113 -359q0 -112 -24.5 -198t-78 -153t-147 -102t-223.5 -35q-118 0 -205 30.5t-144 86.5t-92 144.5t-49 194.5t-14 247z" />
<glyph unicode="7" d="M84 1249v172h979v-149q-75 -79 -157 -197.5t-169 -280.5t-156.5 -371.5t-97.5 -422.5h-194q26 290 186 645.5t375 603.5h-766z" />
<glyph unicode="8" d="M80 393q0 154 60 243t175 138q-98 38 -140 108t-42 189q0 183 101 281t337 98q224 0 327 -93t103 -284q0 -127 -43.5 -197t-130.5 -102q121 -44 175.5 -132.5t54.5 -235.5q0 -223 -120 -331t-368 -108q-489 0 -489 426zM268 408q0 -142 73.5 -213.5t240.5 -71.5 q147 0 216.5 63.5t69.5 214.5q0 128 -54.5 198t-174.5 83v164q90 15 132 71.5t42 157.5q0 108 -54.5 163.5t-195.5 55.5q-131 0 -186 -52t-55 -167q0 -106 42.5 -161.5t131.5 -67.5v-164q-228 -27 -228 -274z" />
<glyph unicode="9" d="M86 958q0 492 471 492q121 0 209 -33t143 -89.5t87.5 -146.5t44.5 -190.5t12 -234.5q0 -98 -6 -180t-22.5 -164.5t-42.5 -147t-67.5 -122t-97 -95t-131.5 -59t-170 -21.5q-110 0 -189.5 28t-125.5 80.5t-68.5 117.5t-26.5 149h179q12 -125 65 -172t180 -47q64 0 111 12 t91.5 48.5t71.5 99.5t43.5 169t16.5 253q0 81 -1.5 138t-6.5 118.5t-14.5 102.5t-24.5 81.5t-37 65.5t-52.5 45.5t-71 29t-91.5 8.5q-147 0 -219 -83.5t-72 -254.5q0 -170 69.5 -241.5t209.5 -71.5q107 0 168 35v-160q-88 -31 -197 -31q-218 0 -328 115.5t-110 355.5z" />
<glyph unicode=":" horiz-adv-x="569" d="M162 104q0 68 27 95.5t94 27.5t95 -27.5t28 -95.5q0 -67 -27.5 -93.5t-95.5 -26.5t-94.5 26.5t-26.5 93.5zM162 950q0 68 27 95.5t94 27.5t95 -27.5t28 -95.5q0 -67 -27.5 -94t-95.5 -27q-67 0 -94 26.5t-27 94.5z" />
<glyph unicode=";" horiz-adv-x="569" d="M162 104q0 68 27 95.5t94 27.5q43 0 68.5 -9t37 -31.5t14.5 -44.5t3 -64q0 -193 -44.5 -262.5t-171.5 -69.5v107q52 0 72.5 25.5t20.5 105.5q-68 0 -94.5 26.5t-26.5 93.5zM162 950q0 68 27 95.5t94 27.5t95 -27.5t28 -95.5q0 -67 -27.5 -94t-95.5 -27q-67 0 -94 26.5 t-27 94.5z" />
<glyph unicode="&#x3c;" horiz-adv-x="1196" d="M102 512v152l990 419v-170l-789 -325l789 -328v-168z" />
<glyph unicode="=" horiz-adv-x="1196" d="M92 297v156h1014v-156h-1014zM92 721v158h1014v-158h-1014z" />
<glyph unicode="&#x3e;" horiz-adv-x="1196" d="M102 92v168l789 328l-789 325v170l990 -419v-152z" />
<glyph unicode="?" d="M106 1028q12 240 117 350.5t348 110.5q225 0 336 -95.5t111 -297.5q0 -63 -12 -115t-26.5 -85t-46 -68t-50.5 -51t-62 -47t-59 -44q-74 -59 -96 -118.5t-25 -198.5h-178q0 98 8.5 161.5t33.5 113t57 82.5t91 79q45 34 65 50.5t47 44t37.5 51.5t18.5 59t8 80 q0 126 -59 184.5t-199 58.5q-69 0 -118.5 -15.5t-79 -39.5t-48 -66t-26 -82.5t-12.5 -101.5h-181zM434 104q0 68 27 95.5t94 27.5t95 -27.5t28 -95.5q0 -67 -27.5 -93.5t-95.5 -26.5t-94.5 26.5t-26.5 93.5z" />
<glyph unicode="@" horiz-adv-x="2078" d="M238 524q0 400 222.5 628t622.5 228q356 0 556 -179t200 -492q0 -144 -44 -268t-116.5 -206.5t-166 -129t-191.5 -46.5q-162 0 -162 162q0 49 21.5 117t43 147t21.5 156q0 118 -44.5 173.5t-137.5 55.5q-148 0 -239 -124t-91 -308q0 -119 42.5 -175t133.5 -56 q60 0 107 20v-135q-68 -33 -139 -33q-56 0 -109 21.5t-99 65t-74 119t-28 173.5q0 152 63 284.5t178 214t255 81.5q91 0 149 -39.5t103 -128.5l39 137h153q-182 -643 -182 -733q0 -51 64 -51q38 0 79.5 18.5t83.5 59t75 96.5t54 139t21 180q0 273 -160 412t-455 139 q-347 0 -523.5 -187.5t-176.5 -535.5q0 -684 703 -684q173 0 288 37t199 123l102 -84q-215 -209 -604 -209q-398 0 -617.5 211.5t-219.5 605.5z" />
<glyph unicode="A" horiz-adv-x="1366" d="M16 0q236 755 557 1468h220q319 -719 555 -1468h-218q-78 260 -137 434h-497l53 172h385q-105 299 -256 666q-289 -648 -457 -1272h-205z" />
<glyph unicode="B" horiz-adv-x="1366" d="M150 0v1468h614q237 0 338.5 -96t101.5 -303q0 -48 -6 -83.5t-22.5 -72t-49 -68t-82.5 -59.5q111 -37 171.5 -118t60.5 -232q0 -219 -124.5 -327.5t-393.5 -108.5h-608zM346 172h432q162 0 228.5 53.5t66.5 198.5q0 67 -14 113t-37.5 73.5t-66.5 42.5t-89 20t-116 5h-261 v172h197q52 0 84 1.5t69.5 6t59 14t43.5 26t33.5 40.5t18.5 58.5t7 80.5q0 51 -7.5 87.5t-26.5 60.5t-41.5 38.5t-63.5 21.5t-80 9t-104 2h-332v-1124z" />
<glyph unicode="C" horiz-adv-x="1478" d="M94 729q0 395 163.5 583.5t512.5 188.5q283 0 438 -118t183 -345h-197q-14 71 -42 123t-63.5 83.5t-86 49.5t-101 24.5t-115.5 6.5q-182 0 -286 -55t-153.5 -186.5t-49.5 -362.5q0 -122 13.5 -211t45.5 -161t87 -116t137 -67t196 -23q67 0 117 7.5t102.5 30.5t88.5 63 t65.5 108t44.5 162h197q-13 -105 -44 -189.5t-70.5 -140.5t-93.5 -97.5t-104 -64t-110.5 -35.5t-104.5 -16.5t-94 -3.5q-166 0 -288 39.5t-210.5 127.5t-133 236.5t-44.5 358.5z" />
<glyph unicode="D" horiz-adv-x="1478" d="M164 0v1468h565q344 0 495.5 -169t151.5 -560q0 -138 -17.5 -246t-62 -203t-117 -157t-185.5 -97.5t-263 -35.5h-227v172h217q106 0 180.5 18.5t128 57.5t85 106.5t45.5 159t14 221.5q0 167 -22.5 273t-79 171.5t-142 91t-219.5 25.5h-351v-1296h-196z" />
<glyph unicode="E" horiz-adv-x="1366" d="M170 0v1468h1067v-172h-870v-1124h890v-172h-1087zM510 670v172h664v-172h-664z" />
<glyph unicode="F" horiz-adv-x="1251" d="M170 0v1468h1010v-172h-813v-1296h-197zM510 670v172h567v-172h-567z" />
<glyph unicode="G" horiz-adv-x="1593" d="M86 731q0 131 22.5 242t76 210.5t135.5 169t208 110t287 40.5q288 0 453 -122.5t192 -340.5h-196q-11 60 -34.5 107t-57 77.5t-71 51.5t-84.5 32t-89.5 15t-93.5 4q-289 0 -417 -140t-128 -448q0 -309 125.5 -453.5t392.5 -144.5q485 0 485 461h-461v172h658v-115 q0 -163 -35.5 -286.5t-112.5 -217t-208 -142t-312 -48.5q-165 0 -293.5 41.5t-210.5 111t-135 169t-74.5 208t-21.5 236.5z" />
<glyph unicode="H" horiz-adv-x="1478" d="M160 0v1468h196v-1468h-196zM500 690v172h622v606h197v-1468h-197v690h-622z" />
<glyph unicode="I" horiz-adv-x="569" d="M186 0v1468h197v-1468h-197z" />
<glyph unicode="J" horiz-adv-x="1024" d="M37 453h196q0 -98 12 -159.5t40.5 -94.5t65 -44.5t95.5 -11.5q121 0 174.5 66t53.5 199v1060h196v-1048q0 -230 -110.5 -341.5t-308.5 -111.5q-149 0 -237.5 45t-132.5 151.5t-44 289.5z" />
<glyph unicode="K" horiz-adv-x="1366" d="M152 0v1468h196v-1468h-196zM410 756l657 712h270l-678 -712l699 -756h-271z" />
<glyph unicode="L" d="M154 0v1468h196v-1292h740v-176h-936z" />
<glyph unicode="M" horiz-adv-x="1705" d="M150 0v1468h296l412 -815l414 815h282v-1468h-196v1231l-412 -799h-188l-412 805v-1237h-196z" />
<glyph unicode="N" horiz-adv-x="1478" d="M158 0v1468h227l737 -1165v1165h197v-1468h-221l-744 1163v-1163h-196z" />
<glyph unicode="O" horiz-adv-x="1593" d="M86 737q0 133 20 242.5t70.5 209t129.5 167t203 107.5t286 40q164 0 289.5 -41t204.5 -110t129 -169.5t69.5 -208.5t19.5 -239q0 -133 -20.5 -243.5t-71 -210t-129.5 -168t-203 -108.5t-286 -40q-711 0 -711 772zM289 735q0 -310 117 -452t391 -142q273 0 390.5 141 t117.5 451q0 313 -119 453.5t-389 140.5q-272 0 -390 -140.5t-118 -451.5z" />
<glyph unicode="P" horiz-adv-x="1366" d="M168 0v1468h516q79 0 139 -3.5t124.5 -14.5t110.5 -30t89 -51t69.5 -76.5t42 -108t15.5 -144.5q0 -109 -28.5 -187t-75.5 -124t-124 -73t-157 -35.5t-191 -8.5h-190v172h248q86 0 141 10t96.5 38t59.5 78.5t18 129.5q0 82 -18.5 133t-61 78t-95 36t-136.5 9h-395v-1296 h-197z" />
<glyph unicode="Q" horiz-adv-x="1593" d="M86 737q0 133 20 242.5t70.5 209t129.5 167t203 107.5t286 40q164 0 289.5 -41t204.5 -110t129 -169.5t69.5 -208.5t19.5 -239q0 -635 -483 -745v184q147 52 214 188t67 371q0 313 -119 453.5t-389 140.5q-272 0 -390 -140.5t-118 -451.5q0 -238 65.5 -374t214.5 -187 v-184q-483 108 -483 747zM713 -256v596h168v-596h-168z" />
<glyph unicode="R" horiz-adv-x="1478" d="M168 0v1468h577q78 0 135 -3t122 -12.5t111 -26.5t90.5 -47.5t71.5 -72.5t43.5 -103t16.5 -138q0 -110 -24 -188t-73 -125.5t-112 -72.5t-151 -36l448 -643h-243l-437 631h-235v172h309q71 0 118 5.5t88 21t63 44.5t34.5 75.5t12.5 113.5q0 62 -14.5 104.5t-38 67.5 t-65.5 39t-85 18t-109 4h-456v-1296h-197z" />
<glyph unicode="S" horiz-adv-x="1366" d="M96 473h197q3 -83 22.5 -142t52 -95.5t86 -57t113 -28t144.5 -7.5q73 0 123.5 5.5t98 21.5t76 44.5t45.5 76.5t17 115q0 64 -17.5 100.5t-71 66t-159.5 54.5l-364 88q-161 40 -237.5 124t-76.5 242q0 420 531 420q96 0 175 -14t134.5 -37.5t98.5 -59t69.5 -73.5t43.5 -86 t24 -92t8 -95h-197q-5 73 -23 123.5t-45.5 81.5t-74.5 48t-98 22.5t-127 5.5q-61 0 -101.5 -3.5t-86 -17t-72 -38t-44.5 -70t-18 -109.5q0 -47 11 -78.5t36.5 -52t54 -32t76.5 -23.5l400 -98q181 -43 264.5 -136.5t83.5 -258.5q0 -441 -574 -441q-107 0 -193.5 14.5 t-162.5 50.5t-127.5 93t-82 145t-32.5 203z" />
<glyph unicode="T" horiz-adv-x="1251" d="M33 1292v176h1184v-176h-1184zM526 0v1149h197v-1149h-197z" />
<glyph unicode="U" horiz-adv-x="1478" d="M162 600v868h196v-858q0 -74 2.5 -123.5t11.5 -103.5t25.5 -87.5t45 -65.5t69.5 -49t99 -27.5t134 -10.5q64 0 112.5 7t92.5 24.5t74 48.5t52.5 77.5t33 113t10.5 153.5v901h197v-854q0 -94 -6.5 -166t-23 -142t-44.5 -120t-73 -93.5t-106.5 -70t-145.5 -41t-191 -14.5 q-138 0 -236 25t-162 72t-101 126.5t-51.5 176t-14.5 233.5z" />
<glyph unicode="V" horiz-adv-x="1366" d="M37 1468h217q80 -266 132.5 -434t135 -403t164.5 -434q228 515 436 1271h205q-136 -435 -261 -784.5t-275 -683.5h-220q-148 334 -272.5 683t-261.5 785z" />
<glyph unicode="W" horiz-adv-x="1933" d="M27 1468h211q90 -596 278 -1218l336 1218h223l330 -1218q184 599 285 1218h211q-140 -742 -392 -1468h-200l-344 1241l-347 -1241h-206q-241 718 -385 1468z" />
<glyph unicode="X" horiz-adv-x="1366" d="M27 0l540 756l-495 712h243l377 -561l385 561h230l-502 -708l530 -760h-243l-410 608l-418 -608h-237z" />
<glyph unicode="Y" horiz-adv-x="1366" d="M20 1468h234q171 -346 426 -700q245 333 430 700h231q-268 -473 -565 -868v-600h-196v600q-290 386 -560 868z" />
<glyph unicode="Z" horiz-adv-x="1251" d="M43 0v170l901 1126h-827v172h1075v-170l-907 -1122h915v-176h-1157z" />
<glyph unicode="[" horiz-adv-x="569" d="M131 -397v1865h387v-145h-219v-1573h219v-147h-387z" />
<glyph unicode="\" horiz-adv-x="569" d="M-23 1468h138q71 -227 231 -743t246 -791h-141z" />
<glyph unicode="]" horiz-adv-x="569" d="M49 -250h219v1573h-219v145h387v-1865h-387v147z" />
<glyph unicode="^" horiz-adv-x="960" d="M31 655l377 781h145l379 -781h-166l-287 605l-282 -605h-166z" />
<glyph unicode="_" d="M-4 -154h1147v-102h-1147v102z" />
<glyph unicode="`" horiz-adv-x="681" d="M37 1493h239l166 -287h-149z" />
<glyph unicode="a" d="M94 262q0 46 8.5 87t31 85t58.5 78t95.5 60t136.5 36l250 33v-147l-162 -23q-127 -18 -178 -57.5t-51 -128.5q0 -90 49 -125t157 -35q160 0 244 66t84 210v353q0 51 -9 83t-35 58t-75 37.5t-125 11.5q-53 0 -92 -5t-65.5 -18t-43.5 -26.5t-28.5 -39.5t-17 -46.5 t-13.5 -58.5h-180q15 193 119.5 269.5t329.5 76.5q96 0 166.5 -13t129 -44.5t89 -91.5t30.5 -148v-799h-180v117q-74 -70 -160 -107t-215 -37q-348 0 -348 289z" />
<glyph unicode="b" d="M125 0v1468h180v-942q0 -156 28.5 -242.5t84.5 -120.5t155 -34q169 0 234 95t65 319q0 99 -11.5 167t-41.5 122.5t-87 81t-142 26.5q-79 0 -141 -27v156q71 27 165 27q230 0 338.5 -136.5t108.5 -404.5q0 -99 -14 -182.5t-47.5 -159t-85.5 -127.5t-132.5 -82.5 t-183.5 -30.5q-83 0 -143 21t-90 48.5t-60 70.5v-113h-180z" />
<glyph unicode="c" horiz-adv-x="1024" d="M70 526q0 139 23 239.5t77 177t148.5 115t230.5 38.5q203 0 300 -90t118 -283h-181q-18 128 -69 172.5t-168 44.5q-115 0 -176.5 -38.5t-88 -126.5t-26.5 -251q0 -112 11 -182.5t42 -121.5t85 -72t141 -21q118 0 173 51t76 197h181q-9 -73 -26 -130.5t-50 -110t-81 -87.5 t-121 -55.5t-167 -20.5q-243 0 -347.5 135t-104.5 420z" />
<glyph unicode="d" d="M72 545q0 274 105.5 412.5t328.5 138.5q104 0 182 -33v-152q-63 29 -145 29q-71 0 -121.5 -18t-81.5 -49.5t-49 -83t-24.5 -108.5t-6.5 -136q0 -228 62 -322t229 -94q105 0 164.5 36.5t87.5 121.5t28 237v944h181v-1468h-181v121q-28 -47 -62.5 -78t-73 -45.5t-71 -19.5 t-73.5 -5q-111 0 -195 30t-137.5 80.5t-87 125.5t-46.5 156t-13 180z" />
<glyph unicode="e" d="M82 516q0 286 118.5 433t383.5 147q256 0 362.5 -147.5t106.5 -469.5h-639v152h454q-6 78 -19.5 129.5t-44 95t-85.5 64t-137 20.5q-88 0 -144.5 -18t-95.5 -65.5t-55.5 -127.5t-16.5 -205q0 -222 69 -308.5t251 -86.5q129 0 193.5 43.5t78.5 157.5h182 q-34 -357 -469 -357q-263 0 -378 132.5t-115 410.5z" />
<glyph unicode="f" horiz-adv-x="569" d="M23 915v152h153v100q0 64 2.5 104.5t12 81.5t26.5 63.5t46 41t71 26t102 7.5q35 0 66 -2.5t45 -4.5l14 -3v-160q-53 6 -96 6q-64 0 -86.5 -27t-22.5 -112v-121h189v-152h-189v-915h-180v915h-153z" />
<glyph unicode="g" d="M74 551q0 545 442 545q67 0 118 -11.5t88.5 -36t60.5 -46t53 -58.5v123h180v-961q0 -76 -4.5 -134t-17 -117.5t-35 -102.5t-59 -81.5t-87 -62t-122 -37t-161.5 -13.5q-199 0 -300.5 73.5t-118.5 247.5h180q18 -100 71 -133t162 -33q90 0 149.5 17t92 41.5t48.5 78t19 98 t3 130.5v461q0 217 -62.5 309t-222.5 92q-88 0 -145.5 -25.5t-88.5 -79.5t-43 -123t-12 -171q0 -222 63.5 -313t235.5 -91q78 0 131 19v-154q-72 -20 -155 -20q-106 0 -188 31t-133 83t-83.5 127t-45.5 154.5t-13 173.5z" />
<glyph unicode="h" d="M135 0v1468h180v-516q63 73 138.5 108.5t195.5 35.5q179 0 268 -89t89 -298v-709h-181v690q0 74 -6.5 116t-28.5 75.5t-64 46t-112 12.5q-106 0 -169 -31t-96.5 -110t-33.5 -217v-582h-180z" />
<glyph unicode="i" horiz-adv-x="454" d="M113 1366q0 65 25 91t89 26q65 0 91 -26.5t26 -90.5t-26 -89.5t-91 -25.5q-64 0 -89 25t-25 90zM137 0v1067h180v-1067h-180z" />
<glyph unicode="j" horiz-adv-x="454" d="M-41 -266q24 -4 61 -4q71 0 94 30.5t23 130.5v1176h180v-1190q0 -61 -4 -100.5t-18 -82.5t-40.5 -67.5t-74 -40.5t-114.5 -16q-28 0 -55 2.5t-39 5.5l-13 2v154zM113 1366q0 65 25 91t89 26q65 0 91 -26.5t26 -90.5t-26 -89.5t-91 -25.5q-64 0 -89 25t-25 90z" />
<glyph unicode="k" horiz-adv-x="1024" d="M131 0v1468h180v-1468h-180zM373 553l387 514h231l-389 -514l420 -553h-231z" />
<glyph unicode="l" horiz-adv-x="454" d="M137 0v1468h180v-1468h-180z" />
<glyph unicode="m" horiz-adv-x="1705" d="M133 0v1067h166v-131q113 160 330 160q213 0 286 -158q70 84 142.5 121t187.5 37q79 0 137 -17.5t103 -57.5t67.5 -111.5t22.5 -174.5v-735h-180v684q0 146 -38.5 201t-150.5 55q-138 0 -200 -73.5t-62 -227.5v-639h-180v723q0 119 -38 168t-144 49q-49 0 -87 -9.5 t-73 -34t-58.5 -65.5t-37 -106.5t-13.5 -153.5v-571h-180z" />
<glyph unicode="n" d="M135 0v1067h166v-131q54 74 134.5 117t215.5 43q182 0 267.5 -93t85.5 -301v-702h-181v653q0 69 -4 111t-16.5 79.5t-37.5 56.5t-64.5 29.5t-100.5 10.5q-54 0 -94.5 -8t-78 -31t-61 -62t-37.5 -103.5t-14 -153.5v-582h-180z" />
<glyph unicode="o" d="M72 532q0 564 495 564q500 0 500 -564q0 -557 -500 -557q-135 0 -232.5 39.5t-154 114.5t-82.5 174t-26 229zM260 535q0 -206 69.5 -305t239.5 -99q168 0 239 99.5t71 306.5q0 205 -70.5 304t-239.5 99t-239 -99t-70 -306z" />
<glyph unicode="p" d="M125 -418v1485h180v-127q24 31 37 46t42.5 40.5t58 37.5t75 22t103.5 10q226 0 334 -138.5t108 -408.5q0 -99 -14 -182t-48 -157.5t-87 -125.5t-135 -81t-187 -30q-75 0 -143 19v155q45 -18 126 -18q169 0 234 92.5t65 317.5q0 100 -12 169t-42 124t-86.5 81.5 t-141.5 26.5q-162 0 -224.5 -101.5t-62.5 -318.5v-938h-180z" />
<glyph unicode="q" d="M70 551q0 545 440 545q111 0 181 -36.5t134 -119.5v127h181v-1485h-181v942q0 222 -61.5 319t-220.5 97q-70 0 -120.5 -18t-82 -50t-50 -83.5t-25.5 -109.5t-7 -138q0 -226 64 -319t231 -93q73 0 129 18v-155q-65 -19 -145 -19q-105 0 -186.5 30.5t-133.5 83t-86 127.5 t-47.5 157t-13.5 180z" />
<glyph unicode="r" horiz-adv-x="681" d="M147 0v1067h168v-131q50 83 113 119.5t160 36.5q23 0 43 -3t29 -5l8 -3v-188q-36 12 -99 12q-130 0 -185.5 -73.5t-55.5 -231.5v-600h-181z" />
<glyph unicode="s" horiz-adv-x="1024" d="M63 334h181q7 -84 29.5 -125.5t76 -60.5t158.5 -19q61 0 103 5.5t79 21t55.5 46t18.5 77.5q0 61 -42.5 98.5t-146.5 64.5l-188 50q-164 43 -230.5 108t-66.5 184q0 162 109 237t303 75q100 0 174.5 -20t116.5 -50t68.5 -76t36 -86t13.5 -92h-180q-4 68 -23 102t-66.5 50 t-141.5 16q-42 0 -71.5 -2.5t-59.5 -11t-48.5 -23t-30 -40t-11.5 -60.5q0 -65 39 -96.5t141 -57.5l174 -43q168 -41 243.5 -105.5t75.5 -199.5q0 -328 -446 -328q-105 0 -182 19t-123.5 49t-76.5 79t-42 97.5t-19 116.5z" />
<glyph unicode="t" horiz-adv-x="569" d="M29 915v152h141v287h180v-287h174v-152h-174v-696q0 -50 21.5 -64t83.5 -14l69 9v-152q-63 -14 -143 -14q-125 0 -168 51.5t-43 185.5v694h-141z" />
<glyph unicode="u" d="M137 301v766h180v-698q0 -143 43 -191.5t156 -48.5q167 0 235 83.5t68 272.5v582h180v-1067h-168v135q-60 -88 -139.5 -125t-208.5 -37q-81 0 -139.5 14.5t-106.5 49.5t-73 101t-27 163z" />
<glyph unicode="v" horiz-adv-x="1024" d="M18 1067h203q108 -445 289 -864q187 419 301 864h193q-154 -537 -404 -1067h-186q-254 552 -396 1067z" />
<glyph unicode="w" horiz-adv-x="1478" d="M20 1067h195q69 -432 215 -842l213 842h197l211 -834q160 439 227 834h178q-111 -538 -319 -1067h-187l-217 823l-209 -823h-188q-221 582 -316 1067z" />
<glyph unicode="x" horiz-adv-x="1024" d="M18 0l381 551l-358 516h229l244 -373l252 373h219l-364 -512l385 -555h-228l-270 408l-266 -408h-224z" />
<glyph unicode="y" horiz-adv-x="1024" d="M25 1067h202q99 -423 289 -868l293 868h192l-391 -1061q-27 -73 -45 -119.5t-40 -96t-38.5 -78t-38 -57t-42.5 -43t-48.5 -26.5t-57.5 -16t-69 -4q-30 0 -57 2.5t-39 5.5l-12 2v168q43 -12 100 -12q71 0 106 45t95 205q-262 577 -399 1085z" />
<glyph unicode="z" horiz-adv-x="1024" d="M55 0v145l656 770h-611v152h844v-139l-655 -772h678v-156h-912z" />
<glyph unicode="{" horiz-adv-x="684" d="M76 467v139q59 1 94 16t54.5 54t25.5 90.5t6 140.5v256q0 80 12.5 135.5t33.5 88.5t59 51t80 24t106 6h63v-141h-39q-88 0 -119.5 -37t-31.5 -145v-352q0 -63 -13.5 -110t-38 -75.5t-46.5 -43.5t-52 -27q30 -12 52 -27t46.5 -43.5t38 -75.5t13.5 -110v-355 q0 -108 31.5 -145t119.5 -37h39v-141h-63q-64 0 -106 6t-80 24t-59 51t-33.5 88.5t-12.5 135.5v258q0 89 -6 140.5t-25.5 90.5t-54.5 54t-94 16z" />
<glyph unicode="|" horiz-adv-x="532" d="M190 -397v1865h152v-1865h-152z" />
<glyph unicode="}" horiz-adv-x="684" d="M74 -256h39q88 0 119.5 37t31.5 145v355q0 63 13.5 110t38 75.5t46.5 43.5t52 27q-30 12 -52 27t-46.5 43.5t-38 75.5t-13.5 110v352q0 108 -31.5 145t-119.5 37h-39v141h63q64 0 106 -6t80 -24t59 -51t33.5 -88.5t12.5 -135.5v-256q0 -89 6 -140.5t25.5 -90.5t54.5 -54 t94 -16v-139q-59 -1 -94 -16t-54.5 -54t-25.5 -90.5t-6 -140.5v-258q0 -80 -12.5 -135.5t-33.5 -88.5t-59 -51t-80 -24t-106 -6h-63v141z" />
<glyph unicode="~" horiz-adv-x="1196" d="M141 442q0 147 63.5 220t194.5 73q66 0 123 -19t90 -41.5t78.5 -41.5t91.5 -19q61 0 87 29t34 92h150q0 -144 -56 -221.5t-186 -77.5q-62 0 -122 20t-98.5 43.5t-88.5 43.5t-96 20q-58 0 -84 -29.5t-37 -91.5h-144z" />
<glyph unicode="&#xa1;" horiz-adv-x="681" d="M217 965q0 67 27.5 93.5t95.5 26.5t94.5 -26.5t26.5 -93.5q0 -68 -27 -95.5t-94 -27.5q-68 0 -95.5 28t-27.5 95zM236 2l51 713h106l51 -713v-401h-208v401z" />
<glyph unicode="&#xa2;" d="M113 526q0 130 22 228t71.5 173t134 117t204.5 50v198h100v-198q180 -9 269 -99t110 -272h-180q-18 127 -72 172t-172 45q-170 0 -234.5 -89t-64.5 -327q0 -111 12.5 -182t44.5 -121.5t87.5 -72t142.5 -21.5q120 0 177.5 51.5t78.5 196.5h180q-10 -84 -33.5 -149 t-66 -120t-113 -88.5t-166.5 -42.5v-200h-100v196q-229 7 -330.5 143t-101.5 412z" />
<glyph unicode="&#xa3;" d="M59 0v172h193v481h-193v135h193v351q0 157 89.5 247.5t287.5 90.5q181 0 280 -86t105 -279h-180q-4 53 -12 85.5t-28.5 65t-61 47.5t-103.5 15q-101 0 -149 -41t-48 -125v-371h311v-135h-311v-481h621v-172h-994z" />
<glyph unicode="&#xa4;" d="M80 340l145 145q-43 90 -43 238q0 141 43 231l-145 146l113 110l135 -135q91 60 241 60q152 0 244 -62l137 137l111 -110l-146 -146q43 -90 43 -231q0 -145 -43 -238l146 -143l-111 -113l-135 133q-87 -61 -242 -61q-156 0 -247 61l-136 -133zM342 717q0 -143 56 -207 t171 -64q121 0 176.5 67.5t55.5 205.5t-56 204t-174 66q-119 0 -174 -65.5t-55 -206.5z" />
<glyph unicode="&#xa5;" d="M-33 1352h223q80 -164 168 -308t211 -313q224 302 383 621h222q-197 -343 -447 -693h305v-157h-923v157h297q-239 335 -439 693zM109 217v156h923v-156h-370v-217h-189v217h-364z" />
<glyph unicode="&#xa6;" horiz-adv-x="532" d="M190 369h152v-766h-152v766zM190 723v745h152v-745h-152z" />
<glyph unicode="&#xa7;" d="M86 637q0 121 47.5 188.5t165.5 120.5q-61 63 -85 109.5t-24 120.5q0 147 91.5 236t287.5 89q179 0 276 -86t103 -278h-178q-4 53 -12.5 87t-29 65.5t-60 46t-99.5 14.5q-100 0 -150 -41t-50 -115q0 -59 36 -104t125 -99l293 -186q69 -42 106.5 -71t67.5 -67t41 -82 t11 -108q0 -63 -14 -109.5t-45.5 -81.5t-66.5 -59t-92 -53q72 -69 98.5 -118t26.5 -130q0 -159 -101 -244t-277 -85q-206 0 -307.5 87t-108.5 289h182q5 -56 14.5 -92t32 -68.5t64.5 -47.5t106 -15q104 0 158.5 39.5t54.5 132.5q0 86 -100 152l-447 299q-141 96 -141 264z M248 674q0 -107 96 -170q84 -55 214.5 -139.5t176.5 -114.5q86 52 118 92t32 107q0 111 -131 194l-359 225q-81 -39 -114 -81.5t-33 -112.5z" />
<glyph unicode="&#xa8;" horiz-adv-x="681" d="M51 1350q0 65 25.5 90.5t89.5 25.5q65 0 91 -26t26 -90t-26 -89.5t-91 -25.5q-64 0 -89.5 25.5t-25.5 89.5zM397 1350q0 65 25.5 90.5t89.5 25.5q65 0 91 -26t26 -90t-26 -89.5t-91 -25.5q-64 0 -89.5 25.5t-25.5 89.5z" />
<glyph unicode="&#xa9;" horiz-adv-x="1509" d="M-18 737q0 363 206.5 563.5t567.5 200.5q359 0 565.5 -200t206.5 -566q0 -365 -206 -565.5t-566 -200.5q-361 0 -567.5 201t-206.5 567zM125 735q0 -311 163 -475t468 -164q304 0 466 163.5t162 475.5q0 311 -161.5 475t-466.5 164t-468 -164t-163 -475zM338 741 q0 228 103 340.5t329 112.5q167 0 265.5 -69.5t123.5 -223.5h-143q-27 92 -80.5 129t-167.5 37q-152 0 -216.5 -79.5t-64.5 -252.5q0 -168 67 -250t220 -82q106 0 162.5 40.5t79.5 142.5h143q-35 -162 -128 -236t-257 -74q-224 0 -330 115t-106 350z" />
<glyph unicode="&#xaa;" horiz-adv-x="757" d="M45 999q0 86 46 137.5t173 67.5l144 17v-105l-89 -12q-77 -10 -107 -29.5t-30 -70.5q0 -54 30.5 -73.5t96.5 -19.5q109 0 155 37.5t46 106.5v243q0 48 -31.5 71.5t-120.5 23.5q-62 0 -97 -13.5t-47.5 -34t-16.5 -55.5h-119q6 117 73 164t222 47q52 0 90.5 -4.5t74 -18 t58 -35.5t36 -58t13.5 -85v-479h-119v84q-79 -106 -250 -106q-127 0 -179 50.5t-52 149.5z" />
<glyph unicode="&#xab;" d="M178 492v122l303 304l101 -101l-265 -264l265 -264l-101 -101zM588 492v122l303 304l100 -101l-264 -264l264 -264l-100 -101z" />
<glyph unicode="&#xac;" horiz-adv-x="1196" d="M90 721v156h1014v-588h-156v432h-858z" />
<glyph unicode="&#xad;" horiz-adv-x="681" d="M80 463v182h520v-182h-520z" />
<glyph unicode="&#xae;" horiz-adv-x="1509" d="M-18 737q0 363 206.5 563.5t567.5 200.5q360 0 566 -200.5t206 -563.5q0 -367 -206 -567.5t-566 -200.5q-362 0 -568 200.5t-206 567.5zM125 737q0 -314 162.5 -478.5t468.5 -164.5q304 0 466 164.5t162 478.5q0 310 -161.5 473.5t-466.5 163.5t-468 -163.5t-163 -473.5z M446 299v864h357q142 0 205 -58.5t63 -180.5q0 -221 -199 -242l252 -383h-153l-236 371h-53v114h98q86 0 122 29.5t36 108.5q0 78 -38 103.5t-120 25.5h-200v-752h-134z" />
<glyph unicode="&#xaf;" horiz-adv-x="681" d="M23 1243v127h634v-127h-634z" />
<glyph unicode="&#xb0;" horiz-adv-x="819" d="M119 1165q0 291 293 291q288 0 288 -289q0 -293 -290 -293q-291 0 -291 291zM229 1165q0 -186 181 -186q180 0 180 186q0 187 -180 187q-181 0 -181 -187z" />
<glyph unicode="&#xb1;" horiz-adv-x="1196" d="M90 0v158h1014v-158h-1014zM90 666v157h430v426h156v-426h428v-157h-428v-428h-156v428h-430z" />
<glyph unicode="&#xb2;" horiz-adv-x="681" d="M12 645q9 119 69.5 200.5t178.5 139.5q56 27 83 40.5t61.5 33.5t48.5 34t29 34.5t19.5 43t4.5 52.5q0 65 -33 97t-123 32q-99 0 -133.5 -38t-44.5 -122h-131q3 68 22 118t46.5 80t68 48t81 24t91.5 6q157 0 230 -60t73 -185q0 -25 -2.5 -47t-10 -42l-13.5 -36t-22 -33 t-26.5 -28.5t-34.5 -28t-39.5 -26.5t-48.5 -27.5t-53 -28t-61 -31.5q-74 -37 -106 -64.5t-41 -62.5h460v-123h-643z" />
<glyph unicode="&#xb3;" horiz-adv-x="681" d="M16 883h142q6 -77 40.5 -110.5t127.5 -33.5q98 0 141 35.5t43 108.5q0 79 -46.5 106t-148.5 27h-41v104h39q85 0 122.5 28t37.5 97q0 56 -30 81.5t-113 25.5q-89 0 -121.5 -30.5t-40.5 -104.5h-131q9 69 25 112.5t49 77t88 47.5t139 14q150 0 217.5 -49.5t67.5 -158.5 q0 -78 -31.5 -118.5t-95.5 -62.5q86 -22 123.5 -67t37.5 -133q0 -124 -76 -191t-249 -67q-111 0 -178.5 30t-98.5 85.5t-39 146.5z" />
<glyph unicode="&#xb4;" horiz-adv-x="681" d="M240 1206l166 287h235l-250 -287h-151z" />
<glyph unicode="&#xb5;" horiz-adv-x="1169" d="M139 -418v1485h180v-569q0 -88 4 -142.5t16.5 -103t37 -73t64 -38.5t98.5 -14q154 0 217 87.5t63 283.5v569h180v-1067h-165v123q-93 -152 -302 -152q-66 0 -117.5 19.5t-95.5 70.5v-479h-180z" />
<glyph unicode="&#xb6;" horiz-adv-x="1099" d="M23 1077q0 213 111.5 302t361.5 89h604v-159h-496v-1680h-155v1053q-225 4 -325.5 98.5t-100.5 296.5zM840 -371v1536h157v-1536h-157z" />
<glyph unicode="&#xb7;" horiz-adv-x="569" d="M162 584q0 68 27 95.5t94 27.5t95 -27.5t28 -95.5q0 -67 -27.5 -94t-95.5 -27q-67 0 -94 26.5t-27 94.5z" />
<glyph unicode="&#xb8;" horiz-adv-x="681" d="M106 -412l17 93q60 -21 119 -21q74 0 102.5 13.5t28.5 56.5q0 39 -22.5 53t-78.5 14h-65l14 94h129q182 0 182 -163q0 -86 -55.5 -130t-177.5 -44q-56 0 -104 8.5t-69 17.5z" />
<glyph unicode="&#xb9;" horiz-adv-x="681" d="M96 1196v100l256 172h109v-825h-142v666z" />
<glyph unicode="&#xba;" horiz-adv-x="747" d="M49 1151q0 186 77 269t247 83t248.5 -83t78.5 -269t-77.5 -269t-247.5 -83t-248 82t-78 270zM190 1153q0 -129 40 -184.5t145 -55.5q104 0 144 55.5t40 182.5q0 128 -40 183t-144 55q-106 0 -145.5 -54.5t-39.5 -181.5z" />
<glyph unicode="&#xbb;" d="M145 289l265 264l-265 264l101 101l303 -304v-122l-303 -304zM555 289l264 264l-264 264l100 101l303 -304v-122l-303 -304z" />
<glyph unicode="&#xbc;" horiz-adv-x="1708" d="M133 1196v100l256 172h109v-825h-142v666zM317 0l951 1468h129l-948 -1468h-132zM922 178v123q155 286 409 522h180q-296 -275 -434 -530h254v156h135v-156h127v-115h-127v-178h-135v178h-409z" />
<glyph unicode="&#xbd;" horiz-adv-x="1708" d="M96 1196v100l256 172h109v-825h-142v666zM260 0l950 1468h129l-948 -1468h-131zM969 0q9 119 69.5 200.5t178.5 139.5q48 23 72 35t56 29.5t46.5 29t31.5 28t23.5 33t11 37t4.5 46.5q0 65 -32.5 97t-122.5 32q-99 0 -134 -38t-45 -122h-131q3 68 22 118t47 80t68.5 48 t81 24t91.5 6q157 0 230 -60t73 -185q0 -28 -4.5 -52.5t-9.5 -44.5t-19.5 -40t-25 -33.5t-35.5 -32t-41 -29.5t-52 -30.5t-57 -30.5t-68 -35q-74 -37 -106 -64.5t-41 -62.5h461v-123h-643z" />
<glyph unicode="&#xbe;" horiz-adv-x="1708" d="M72 883h141q6 -77 40.5 -110.5t127.5 -33.5q98 0 141 35.5t43 108.5q0 80 -46.5 106.5t-147.5 26.5h-41v104h39q85 0 122 28t37 97q0 56 -30 81.5t-113 25.5q-89 0 -121.5 -30.5t-40.5 -104.5h-131q9 69 25 112.5t49 77t88 47.5t139 14q150 0 217.5 -49.5t67.5 -158.5 q0 -78 -31.5 -118.5t-95.5 -62.5q86 -22 124 -67t38 -133q0 -124 -76.5 -191t-249.5 -67q-84 0 -142 16t-94 50t-54.5 81t-24.5 115zM397 0l951 1468h129l-949 -1468h-131zM993 178v123q154 284 410 522h180q-296 -275 -434 -530h254v156h135v-156h127v-115h-127v-178h-135 v178h-410z" />
<glyph unicode="&#xbf;" horiz-adv-x="1251" d="M174 -27q0 63 12 115t26.5 85t46 68t50.5 51t62 47t59 44q74 59 96 118.5t25 198.5h178q0 -98 -8.5 -161.5t-33.5 -113t-57 -82.5t-91 -79q-46 -35 -65 -50.5t-47 -43.5t-38 -51t-18.5 -58.5t-8.5 -80.5q0 -126 59.5 -185t199.5 -59q69 0 118.5 15.5t79 39.5t48 66 t26 82.5t12.5 101.5h180q-12 -240 -116.5 -350.5t-347.5 -110.5q-225 0 -336 95.5t-111 297.5zM514 965q0 67 27.5 93.5t95.5 26.5t94.5 -26.5t26.5 -93.5q0 -68 -27 -95.5t-94 -27.5t-95 28t-28 95z" />
<glyph unicode="&#xc0;" horiz-adv-x="1366" d="M16 0q236 755 557 1468h220q319 -719 555 -1468h-218q-78 260 -137 434h-497l53 172h385q-105 299 -256 666q-289 -648 -457 -1272h-205zM379 1882h239l166 -287h-149z" />
<glyph unicode="&#xc1;" horiz-adv-x="1366" d="M16 0q236 755 557 1468h220q319 -719 555 -1468h-218q-78 260 -137 434h-497l53 172h385q-105 299 -256 666q-289 -648 -457 -1272h-205zM582 1595l166 287h235l-250 -287h-151z" />
<glyph unicode="&#xc2;" horiz-adv-x="1366" d="M16 0q236 755 557 1468h220q319 -719 555 -1468h-218q-78 260 -137 434h-497l53 172h385q-105 299 -256 666q-289 -648 -457 -1272h-205zM377 1595l209 287h190l211 -287h-178l-127 185l-127 -185h-178z" />
<glyph unicode="&#xc3;" horiz-adv-x="1366" d="M16 0q236 755 557 1468h220q319 -719 555 -1468h-218q-78 260 -137 434h-497l53 172h385q-105 299 -256 666q-289 -648 -457 -1272h-205zM340 1628q0 221 195 221q49 0 92 -14t68 -31t59 -31t69 -14q45 0 64.5 21.5t25.5 68.5h113q0 -108 -42.5 -165.5t-139.5 -57.5 q-47 0 -91.5 14.5t-74 32.5t-67.5 32.5t-72 14.5q-43 0 -62.5 -22t-27.5 -70h-109z" />
<glyph unicode="&#xc4;" horiz-adv-x="1366" d="M16 0q236 755 557 1468h220q319 -719 555 -1468h-218q-78 260 -137 434h-497l53 172h385q-105 299 -256 666q-289 -648 -457 -1272h-205zM393 1739q0 65 25.5 90.5t89.5 25.5q65 0 91 -26t26 -90t-26 -89.5t-91 -25.5q-64 0 -89.5 25t-25.5 90zM739 1739q0 65 25.5 90.5 t89.5 25.5q65 0 91 -26t26 -90t-26 -89.5t-91 -25.5q-64 0 -89.5 25t-25.5 90z" />
<glyph unicode="&#xc5;" horiz-adv-x="1366" d="M16 0q236 755 557 1468h220q319 -719 555 -1468h-218q-78 260 -137 434h-497l53 172h385q-105 299 -256 666q-289 -648 -457 -1272h-205zM494 1741q0 186 186 186t186 -186q0 -187 -186 -187t-186 187zM588 1741q0 -44 24 -68t68 -24t68 24t24 68t-24 68t-68 24t-68 -24 t-24 -68z" />
<glyph unicode="&#xc6;" horiz-adv-x="2048" d="M16 0q236 755 557 1468h1350v-172h-776v-1124h795v-172h-992v434h-452l55 172h397v690h-256q-284 -611 -473 -1296h-205zM1290 668v172h570v-172h-570z" />
<glyph unicode="&#xc7;" horiz-adv-x="1478" d="M94 729q0 395 163.5 583.5t512.5 188.5q283 0 438 -118t183 -345h-197q-14 71 -42 123t-63.5 83.5t-86 49.5t-101 24.5t-115.5 6.5q-182 0 -286 -55t-153.5 -186.5t-49.5 -362.5q0 -122 13.5 -211t45.5 -161t87 -116t137 -67t196 -23q67 0 117 7.5t102.5 30.5t88.5 63 t65.5 108t44.5 162h197q-13 -105 -44 -189.5t-70.5 -140.5t-93.5 -97.5t-104 -64t-110.5 -35.5t-104.5 -16.5t-94 -3.5q-166 0 -288 39.5t-210.5 127.5t-133 236.5t-44.5 358.5zM584 -412l16 93q60 -21 119 -21q74 0 102.5 13.5t28.5 56.5q0 39 -22.5 53t-77.5 14h-66l14 94 h129q183 0 183 -163q0 -86 -55.5 -130t-178.5 -44q-56 0 -104 8.5t-68 17.5z" />
<glyph unicode="&#xc8;" horiz-adv-x="1366" d="M170 0v1468h1067v-172h-870v-1124h890v-172h-1087zM379 1882h239l166 -287h-149zM510 670v172h664v-172h-664z" />
<glyph unicode="&#xc9;" horiz-adv-x="1366" d="M170 0v1468h1067v-172h-870v-1124h890v-172h-1087zM510 670v172h664v-172h-664zM582 1595l166 287h235l-250 -287h-151z" />
<glyph unicode="&#xca;" horiz-adv-x="1366" d="M170 0v1468h1067v-172h-870v-1124h890v-172h-1087zM377 1595l209 287h190l211 -287h-178l-127 185l-127 -185h-178zM510 670v172h664v-172h-664z" />
<glyph unicode="&#xcb;" horiz-adv-x="1366" d="M170 0v1468h1067v-172h-870v-1124h890v-172h-1087zM393 1739q0 65 25.5 90.5t89.5 25.5q65 0 91 -26t26 -90t-26 -89.5t-91 -25.5q-64 0 -89.5 25t-25.5 90zM510 670v172h664v-172h-664zM739 1739q0 65 25.5 90.5t89.5 25.5q65 0 91 -26t26 -90t-26 -89.5t-91 -25.5 q-64 0 -89.5 25t-25.5 90z" />
<glyph unicode="&#xcc;" horiz-adv-x="569" d="M-18 1882h239l166 -287h-149zM186 0v1468h197v-1468h-197z" />
<glyph unicode="&#xcd;" horiz-adv-x="569" d="M184 1595l166 287h236l-250 -287h-152zM186 0v1468h197v-1468h-197z" />
<glyph unicode="&#xce;" horiz-adv-x="569" d="M-20 1595l208 287h191l211 -287h-178l-127 185l-127 -185h-178zM186 0v1468h197v-1468h-197z" />
<glyph unicode="&#xcf;" horiz-adv-x="569" d="M-4 1739q0 65 25.5 90.5t89.5 25.5q65 0 90.5 -25.5t25.5 -90.5q0 -64 -25.5 -89.5t-90.5 -25.5t-90 25t-25 90zM186 0v1468h197v-1468h-197zM342 1739q0 65 25.5 90.5t89.5 25.5q65 0 90.5 -25.5t25.5 -90.5q0 -64 -25.5 -89.5t-90.5 -25.5t-90 25t-25 90z" />
<glyph unicode="&#xd0;" horiz-adv-x="1478" d="M0 666v161h164v641h565q344 0 495.5 -169t151.5 -560q0 -138 -17.5 -246t-62 -203t-117 -157t-185.5 -97.5t-263 -35.5h-227v172h217q106 0 180.5 18.5t128 57.5t85 106.5t45.5 159t14 221.5q0 167 -22.5 273t-79 171.5t-142 91t-219.5 25.5h-351v-469h398v-161h-398 v-666h-196v666h-164z" />
<glyph unicode="&#xd1;" horiz-adv-x="1478" d="M158 0v1468h227l737 -1165v1165h197v-1468h-221l-744 1163v-1163h-196zM410 1628q0 221 194 221q49 0 92 -14t68 -31t59.5 -31t69.5 -14q45 0 64.5 21.5t25.5 68.5h113q0 -108 -43 -165.5t-140 -57.5q-47 0 -91.5 14.5t-74 32.5t-67.5 32.5t-72 14.5q-43 0 -62.5 -22 t-27.5 -70h-108z" />
<glyph unicode="&#xd2;" horiz-adv-x="1593" d="M86 737q0 133 20 242.5t70.5 209t129.5 167t203 107.5t286 40q164 0 289.5 -41t204.5 -110t129 -169.5t69.5 -208.5t19.5 -239q0 -133 -20.5 -243.5t-71 -210t-129.5 -168t-203 -108.5t-286 -40q-711 0 -711 772zM289 735q0 -310 117 -452t391 -142q273 0 390.5 141 t117.5 451q0 313 -119 453.5t-389 140.5q-272 0 -390 -140.5t-118 -451.5zM494 1882h239l166 -287h-149z" />
<glyph unicode="&#xd3;" horiz-adv-x="1593" d="M86 737q0 133 20 242.5t70.5 209t129.5 167t203 107.5t286 40q164 0 289.5 -41t204.5 -110t129 -169.5t69.5 -208.5t19.5 -239q0 -133 -20.5 -243.5t-71 -210t-129.5 -168t-203 -108.5t-286 -40q-711 0 -711 772zM289 735q0 -310 117 -452t391 -142q273 0 390.5 141 t117.5 451q0 313 -119 453.5t-389 140.5q-272 0 -390 -140.5t-118 -451.5zM694 1595l166 287h236l-250 -287h-152z" />
<glyph unicode="&#xd4;" horiz-adv-x="1593" d="M86 737q0 133 20 242.5t70.5 209t129.5 167t203 107.5t286 40q164 0 289.5 -41t204.5 -110t129 -169.5t69.5 -208.5t19.5 -239q0 -133 -20.5 -243.5t-71 -210t-129.5 -168t-203 -108.5t-286 -40q-711 0 -711 772zM289 735q0 -310 117 -452t391 -142q273 0 390.5 141 t117.5 451q0 313 -119 453.5t-389 140.5q-272 0 -390 -140.5t-118 -451.5zM489 1595l209 287h191l211 -287h-178l-127 185l-127 -185h-179z" />
<glyph unicode="&#xd5;" horiz-adv-x="1593" d="M86 737q0 133 20 242.5t70.5 209t129.5 167t203 107.5t286 40q164 0 289.5 -41t204.5 -110t129 -169.5t69.5 -208.5t19.5 -239q0 -133 -20.5 -243.5t-71 -210t-129.5 -168t-203 -108.5t-286 -40q-711 0 -711 772zM289 735q0 -310 117 -452t391 -142q273 0 390.5 141 t117.5 451q0 313 -119 453.5t-389 140.5q-272 0 -390 -140.5t-118 -451.5zM453 1628q0 221 194 221q49 0 92 -14t68 -31t59.5 -31t69.5 -14q45 0 64.5 21.5t25.5 68.5h113q0 -108 -43 -165.5t-140 -57.5q-47 0 -91.5 14.5t-74 32.5t-67.5 32.5t-72 14.5q-43 0 -62.5 -22 t-27.5 -70h-108z" />
<glyph unicode="&#xd6;" horiz-adv-x="1593" d="M86 737q0 133 20 242.5t70.5 209t129.5 167t203 107.5t286 40q164 0 289.5 -41t204.5 -110t129 -169.5t69.5 -208.5t19.5 -239q0 -133 -20.5 -243.5t-71 -210t-129.5 -168t-203 -108.5t-286 -40q-711 0 -711 772zM289 735q0 -310 117 -452t391 -142q273 0 390.5 141 t117.5 451q0 313 -119 453.5t-389 140.5q-272 0 -390 -140.5t-118 -451.5zM508 1739q0 65 25.5 90.5t89.5 25.5q65 0 90.5 -25.5t25.5 -90.5q0 -64 -25.5 -89.5t-90.5 -25.5t-90 25t-25 90zM854 1739q0 65 25.5 90.5t89.5 25.5q65 0 90.5 -25.5t25.5 -90.5 q0 -64 -25.5 -89.5t-90.5 -25.5t-90 25t-25 90z" />
<glyph unicode="&#xd7;" horiz-adv-x="1196" d="M106 207l381 381l-381 379l113 110l379 -379l379 379l110 -110l-378 -379l378 -379l-110 -113l-379 379l-381 -379z" />
<glyph unicode="&#xd8;" horiz-adv-x="1593" d="M72 31l155 170q-141 191 -141 536q0 133 20 242.5t70.5 209t129.5 167t203 107.5t286 40q309 0 485 -143l147 162l97 -90l-154 -168q137 -187 137 -529q0 -133 -20.5 -243.5t-71 -210t-129.5 -168t-203 -108.5t-286 -40q-307 0 -482 141l-147 -161zM289 735 q0 -310 117 -452t391 -142q273 0 390.5 141t117.5 451q0 313 -119 453.5t-389 140.5q-272 0 -390 -140.5t-118 -451.5z" />
<glyph unicode="&#xd9;" horiz-adv-x="1478" d="M162 600v868h196v-858q0 -74 2.5 -123.5t11.5 -103.5t25.5 -87.5t45 -65.5t69.5 -49t99 -27.5t134 -10.5q64 0 112.5 7t92.5 24.5t74 48.5t52.5 77.5t33 113t10.5 153.5v901h197v-854q0 -94 -6.5 -166t-23 -142t-44.5 -120t-73 -93.5t-106.5 -70t-145.5 -41t-191 -14.5 q-138 0 -236 25t-162 72t-101 126.5t-51.5 176t-14.5 233.5zM436 1882h240l166 -287h-150z" />
<glyph unicode="&#xda;" horiz-adv-x="1478" d="M162 600v868h196v-858q0 -74 2.5 -123.5t11.5 -103.5t25.5 -87.5t45 -65.5t69.5 -49t99 -27.5t134 -10.5q64 0 112.5 7t92.5 24.5t74 48.5t52.5 77.5t33 113t10.5 153.5v901h197v-854q0 -94 -6.5 -166t-23 -142t-44.5 -120t-73 -93.5t-106.5 -70t-145.5 -41t-191 -14.5 q-138 0 -236 25t-162 72t-101 126.5t-51.5 176t-14.5 233.5zM639 1595l166 287h235l-249 -287h-152z" />
<glyph unicode="&#xdb;" horiz-adv-x="1478" d="M162 600v868h196v-858q0 -74 2.5 -123.5t11.5 -103.5t25.5 -87.5t45 -65.5t69.5 -49t99 -27.5t134 -10.5q64 0 112.5 7t92.5 24.5t74 48.5t52.5 77.5t33 113t10.5 153.5v901h197v-854q0 -94 -6.5 -166t-23 -142t-44.5 -120t-73 -93.5t-106.5 -70t-145.5 -41t-191 -14.5 q-138 0 -236 25t-162 72t-101 126.5t-51.5 176t-14.5 233.5zM434 1595l209 287h191l210 -287h-178l-127 185l-127 -185h-178z" />
<glyph unicode="&#xdc;" horiz-adv-x="1478" d="M162 600v868h196v-858q0 -74 2.5 -123.5t11.5 -103.5t25.5 -87.5t45 -65.5t69.5 -49t99 -27.5t134 -10.5q64 0 112.5 7t92.5 24.5t74 48.5t52.5 77.5t33 113t10.5 153.5v901h197v-854q0 -94 -6.5 -166t-23 -142t-44.5 -120t-73 -93.5t-106.5 -70t-145.5 -41t-191 -14.5 q-138 0 -236 25t-162 72t-101 126.5t-51.5 176t-14.5 233.5zM449 1739q0 65 25 90.5t89 25.5q65 0 91 -26t26 -90t-26 -89.5t-91 -25.5q-64 0 -89 25t-25 90zM795 1739q0 65 25 90.5t89 25.5q65 0 91 -26t26 -90t-26 -89.5t-91 -25.5q-64 0 -89 25t-25 90z" />
<glyph unicode="&#xdd;" horiz-adv-x="1366" d="M20 1468h234q171 -346 426 -700q245 333 430 700h231q-268 -473 -565 -868v-600h-196v600q-290 386 -560 868zM582 1595l166 287h235l-250 -287h-151z" />
<glyph unicode="&#xde;" horiz-adv-x="1366" d="M168 0v1468h197v-262h393q137 0 229 -19t159 -66t97.5 -129.5t30.5 -207.5t-30.5 -208.5t-98 -133.5t-164 -71t-238.5 -21h-235v172h248q125 0 193.5 26t95 79.5t26.5 150.5q0 150 -66.5 203t-244.5 53h-395v-1034h-197z" />
<glyph unicode="&#xdf;" horiz-adv-x="1251" d="M141 0v1059q0 227 106 329.5t347 102.5q246 0 354.5 -86t108.5 -256q0 -76 -18.5 -129.5t-44.5 -81.5t-52 -49.5t-44.5 -47t-18.5 -59.5q0 -24 16.5 -44t43 -37t58 -35t63.5 -43.5t58.5 -57.5t43 -81.5t16.5 -110.5q0 -205 -105 -302.5t-323 -97.5q-36 0 -82.5 6.5 t-75.5 13.5l-29 7v150q101 -17 197 -17q126 0 177.5 58.5t51.5 179.5q0 50 -16.5 87t-43 60t-58 41.5t-63.5 37t-58.5 41t-43 59t-16.5 85.5q0 54 18.5 91.5t44.5 61l52 47t44.5 63.5t18.5 96q0 107 -61.5 150.5t-212.5 43.5q-163 0 -217.5 -63t-54.5 -246v-1026h-181z" />
<glyph unicode="&#xe0;" d="M94 262q0 46 8.5 87t31 85t58.5 78t95.5 60t136.5 36l250 33v-147l-162 -23q-127 -18 -178 -57.5t-51 -128.5q0 -90 49 -125t157 -35q160 0 244 66t84 210v353q0 51 -9 83t-35 58t-75 37.5t-125 11.5q-53 0 -92 -5t-65.5 -18t-43.5 -26.5t-28.5 -39.5t-17 -46.5 t-13.5 -58.5h-180q15 193 119.5 269.5t329.5 76.5q96 0 166.5 -13t129 -44.5t89 -91.5t30.5 -148v-799h-180v117q-74 -70 -160 -107t-215 -37q-348 0 -348 289zM287 1493h239l166 -287h-149z" />
<glyph unicode="&#xe1;" d="M94 262q0 46 8.5 87t31 85t58.5 78t95.5 60t136.5 36l250 33v-147l-162 -23q-127 -18 -178 -57.5t-51 -128.5q0 -90 49 -125t157 -35q160 0 244 66t84 210v353q0 51 -9 83t-35 58t-75 37.5t-125 11.5q-53 0 -92 -5t-65.5 -18t-43.5 -26.5t-28.5 -39.5t-17 -46.5 t-13.5 -58.5h-180q15 193 119.5 269.5t329.5 76.5q96 0 166.5 -13t129 -44.5t89 -91.5t30.5 -148v-799h-180v117q-74 -70 -160 -107t-215 -37q-348 0 -348 289zM489 1206l166 287h236l-250 -287h-152z" />
<glyph unicode="&#xe2;" d="M94 262q0 46 8.5 87t31 85t58.5 78t95.5 60t136.5 36l250 33v-147l-162 -23q-127 -18 -178 -57.5t-51 -128.5q0 -90 49 -125t157 -35q160 0 244 66t84 210v353q0 51 -9 83t-35 58t-75 37.5t-125 11.5q-53 0 -92 -5t-65.5 -18t-43.5 -26.5t-28.5 -39.5t-17 -46.5 t-13.5 -58.5h-180q15 193 119.5 269.5t329.5 76.5q96 0 166.5 -13t129 -44.5t89 -91.5t30.5 -148v-799h-180v117q-74 -70 -160 -107t-215 -37q-348 0 -348 289zM285 1206l209 287h190l211 -287h-178l-127 185l-127 -185h-178z" />
<glyph unicode="&#xe3;" d="M94 262q0 46 8.5 87t31 85t58.5 78t95.5 60t136.5 36l250 33v-147l-162 -23q-127 -18 -178 -57.5t-51 -128.5q0 -90 49 -125t157 -35q160 0 244 66t84 210v353q0 51 -9 83t-35 58t-75 37.5t-125 11.5q-53 0 -92 -5t-65.5 -18t-43.5 -26.5t-28.5 -39.5t-17 -46.5 t-13.5 -58.5h-180q15 193 119.5 269.5t329.5 76.5q96 0 166.5 -13t129 -44.5t89 -91.5t30.5 -148v-799h-180v117q-74 -70 -160 -107t-215 -37q-348 0 -348 289zM233 1239q0 221 195 221q49 0 92 -14t68 -31t59.5 -31t69.5 -14q45 0 64.5 21.5t25.5 68.5h113 q0 -108 -43 -165.5t-140 -57.5q-47 0 -91.5 14.5t-74 32.5t-67.5 32.5t-72 14.5q-43 0 -62.5 -22t-27.5 -70h-109z" />
<glyph unicode="&#xe4;" d="M94 262q0 46 8.5 87t31 85t58.5 78t95.5 60t136.5 36l250 33v-147l-162 -23q-127 -18 -178 -57.5t-51 -128.5q0 -90 49 -125t157 -35q160 0 244 66t84 210v353q0 51 -9 83t-35 58t-75 37.5t-125 11.5q-53 0 -92 -5t-65.5 -18t-43.5 -26.5t-28.5 -39.5t-17 -46.5 t-13.5 -58.5h-180q15 193 119.5 269.5t329.5 76.5q96 0 166.5 -13t129 -44.5t89 -91.5t30.5 -148v-799h-180v117q-74 -70 -160 -107t-215 -37q-348 0 -348 289zM301 1350q0 65 25.5 90.5t89.5 25.5t90 -26t26 -90t-25.5 -89.5t-90.5 -25.5q-64 0 -89.5 25.5t-25.5 89.5z M647 1350q0 65 25.5 90.5t89.5 25.5q65 0 91 -26t26 -90t-26 -89.5t-91 -25.5q-64 0 -89.5 25.5t-25.5 89.5z" />
<glyph unicode="&#xe5;" d="M94 262q0 46 8.5 87t31 85t58.5 78t95.5 60t136.5 36l250 33v-147l-162 -23q-127 -18 -178 -57.5t-51 -128.5q0 -90 49 -125t157 -35q160 0 244 66t84 210v353q0 51 -9 83t-35 58t-75 37.5t-125 11.5q-53 0 -92 -5t-65.5 -18t-43.5 -26.5t-28.5 -39.5t-17 -46.5 t-13.5 -58.5h-180q15 193 119.5 269.5t329.5 76.5q96 0 166.5 -13t129 -44.5t89 -91.5t30.5 -148v-799h-180v117q-74 -70 -160 -107t-215 -37q-348 0 -348 289zM406 1352q0 186 186 186t186 -186q0 -187 -186 -187t-186 187zM500 1352q0 -44 24 -68t68 -24t68 24t24 68 t-24 68t-68 24t-68 -24t-24 -68z" />
<glyph unicode="&#xe6;" horiz-adv-x="1820" d="M94 262q0 46 8 87t30.5 85t58.5 77.5t95.5 59.5t137.5 37l223 31v-147l-135 -21q-58 -9 -94.5 -19t-70 -30t-49 -55t-15.5 -86q0 -92 50 -125t156 -33q158 0 230 65.5t72 212.5v353q0 46 -9.5 78t-34 57.5t-72 38t-118.5 12.5q-60 0 -100 -7.5t-65 -19.5t-41 -38 t-23.5 -52t-16.5 -73h-180q13 192 116 269t310 77q131 0 215.5 -30t142.5 -103q114 133 363 133q104 0 181 -25t130 -73.5t85.5 -125t46.5 -173t14 -224.5h-617v152h432q-5 63 -12.5 106t-26 85.5t-47.5 67t-76.5 39.5t-113.5 15q-87 0 -142 -18.5t-91.5 -67t-51 -128.5 t-14.5 -206q0 -225 63 -308t244 -83q128 0 188 41.5t74 155.5h182q-6 -60 -21.5 -108.5t-49 -95.5t-83 -78.5t-127.5 -51t-179 -19.5q-156 0 -252 46t-146 141q-129 -187 -424 -187q-176 0 -263 71t-87 218z" />
<glyph unicode="&#xe7;" horiz-adv-x="1024" d="M70 526q0 139 23 239.5t77 177t148.5 115t230.5 38.5q203 0 300 -90t118 -283h-181q-18 128 -69 172.5t-168 44.5q-115 0 -176.5 -38.5t-88 -126.5t-26.5 -251q0 -112 11 -182.5t42 -121.5t85 -72t141 -21q118 0 173 51t76 197h181q-9 -73 -26 -130.5t-50 -110t-81 -87.5 t-121 -55.5t-167 -20.5q-243 0 -347.5 135t-104.5 420zM342 -412l16 93q60 -21 119 -21q74 0 102.5 13.5t28.5 56.5q0 39 -22.5 53t-77.5 14h-66l15 94h129q182 0 182 -163q0 -86 -55.5 -130t-177.5 -44q-56 0 -104 8.5t-69 17.5z" />
<glyph unicode="&#xe8;" d="M82 516q0 286 118.5 433t383.5 147q256 0 362.5 -147.5t106.5 -469.5h-639v152h454q-6 78 -19.5 129.5t-44 95t-85.5 64t-137 20.5q-88 0 -144.5 -18t-95.5 -65.5t-55.5 -127.5t-16.5 -205q0 -222 69 -308.5t251 -86.5q129 0 193.5 43.5t78.5 157.5h182 q-34 -357 -469 -357q-263 0 -378 132.5t-115 410.5zM266 1493h240l166 -287h-150z" />
<glyph unicode="&#xe9;" d="M82 516q0 286 118.5 433t383.5 147q256 0 362.5 -147.5t106.5 -469.5h-639v152h454q-6 78 -19.5 129.5t-44 95t-85.5 64t-137 20.5q-88 0 -144.5 -18t-95.5 -65.5t-55.5 -127.5t-16.5 -205q0 -222 69 -308.5t251 -86.5q129 0 193.5 43.5t78.5 157.5h182 q-34 -357 -469 -357q-263 0 -378 132.5t-115 410.5zM469 1206l166 287h235l-249 -287h-152z" />
<glyph unicode="&#xea;" d="M82 516q0 286 118.5 433t383.5 147q256 0 362.5 -147.5t106.5 -469.5h-639v152h454q-6 78 -19.5 129.5t-44 95t-85.5 64t-137 20.5q-88 0 -144.5 -18t-95.5 -65.5t-55.5 -127.5t-16.5 -205q0 -222 69 -308.5t251 -86.5q129 0 193.5 43.5t78.5 157.5h182 q-34 -357 -469 -357q-263 0 -378 132.5t-115 410.5zM264 1206l209 287h191l210 -287h-178l-127 185l-127 -185h-178z" />
<glyph unicode="&#xeb;" d="M82 516q0 286 118.5 433t383.5 147q256 0 362.5 -147.5t106.5 -469.5h-639v152h454q-6 78 -19.5 129.5t-44 95t-85.5 64t-137 20.5q-88 0 -144.5 -18t-95.5 -65.5t-55.5 -127.5t-16.5 -205q0 -222 69 -308.5t251 -86.5q129 0 193.5 43.5t78.5 157.5h182 q-34 -357 -469 -357q-263 0 -378 132.5t-115 410.5zM281 1350q0 65 25 90.5t89 25.5q65 0 91 -26t26 -90t-26 -89.5t-91 -25.5q-64 0 -89 25t-25 90zM627 1350q0 65 25 90.5t89 25.5q65 0 91 -26t26 -90t-26 -89.5t-91 -25.5q-64 0 -89 25t-25 90z" />
<glyph unicode="&#xec;" horiz-adv-x="454" d="M-76 1493h240l166 -287h-150zM137 0v1067h180v-1067h-180z" />
<glyph unicode="&#xed;" horiz-adv-x="454" d="M127 1206l166 287h235l-249 -287h-152zM137 0v1067h180v-1067h-180z" />
<glyph unicode="&#xee;" horiz-adv-x="454" d="M-78 1206l209 287h191l210 -287h-178l-127 185l-127 -185h-178zM137 0v1067h180v-1067h-180z" />
<glyph unicode="&#xef;" horiz-adv-x="454" d="M-61 1350q0 65 25 90.5t89 25.5q65 0 91 -26t26 -90t-26 -89.5t-91 -25.5q-64 0 -89 25t-25 90zM137 0v1067h180v-1067h-180zM285 1350q0 65 25 90.5t89 25.5q65 0 91 -26t26 -90t-26 -89.5t-91 -25.5q-64 0 -89 25t-25 90z" />
<glyph unicode="&#xf0;" d="M74 514q0 271 119 412t337 141q57 0 117 -14v-150q-33 8 -80 8q-86 0 -147 -28.5t-94.5 -82.5t-48.5 -122.5t-15 -157.5q0 -92 16 -161.5t50.5 -122t94.5 -80t144 -27.5q310 0 310 391q0 94 -13.5 186t-43.5 189.5t-87.5 188t-136.5 157.5l-238 -119l-49 105l199 94 q-32 27 -68.5 50.5t-57.5 33.5l-20 10l64 109q42 -18 112 -59.5t111 -73.5l215 102l51 -102l-174 -82q176 -177 250 -348.5t74 -395.5q0 -161 -33.5 -276t-99.5 -184t-154.5 -100.5t-206.5 -31.5q-497 0 -497 541z" />
<glyph unicode="&#xf1;" d="M135 0v1067h166v-131q54 74 134.5 117t215.5 43q182 0 267.5 -93t85.5 -301v-702h-181v653q0 69 -4 111t-16.5 79.5t-37.5 56.5t-64.5 29.5t-100.5 10.5q-54 0 -94.5 -8t-78 -31t-61 -62t-37.5 -103.5t-14 -153.5v-582h-180zM213 1239q0 221 195 221q49 0 92 -14t68 -31 t59 -31t69 -14q45 0 64.5 21.5t25.5 68.5h113q0 -108 -42.5 -165.5t-139.5 -57.5q-47 0 -91.5 14.5t-74 32.5t-67.5 32.5t-72 14.5q-43 0 -62.5 -22t-27.5 -70h-109z" />
<glyph unicode="&#xf2;" d="M72 532q0 564 495 564q500 0 500 -564q0 -557 -500 -557q-135 0 -232.5 39.5t-154 114.5t-82.5 174t-26 229zM260 535q0 -206 69.5 -305t239.5 -99q168 0 239 99.5t71 306.5q0 205 -70.5 304t-239.5 99t-239 -99t-70 -306zM266 1493h240l166 -287h-150z" />
<glyph unicode="&#xf3;" d="M72 532q0 564 495 564q500 0 500 -564q0 -557 -500 -557q-135 0 -232.5 39.5t-154 114.5t-82.5 174t-26 229zM260 535q0 -206 69.5 -305t239.5 -99q168 0 239 99.5t71 306.5q0 205 -70.5 304t-239.5 99t-239 -99t-70 -306zM469 1206l166 287h235l-249 -287h-152z" />
<glyph unicode="&#xf4;" d="M72 532q0 564 495 564q500 0 500 -564q0 -557 -500 -557q-135 0 -232.5 39.5t-154 114.5t-82.5 174t-26 229zM260 535q0 -206 69.5 -305t239.5 -99q168 0 239 99.5t71 306.5q0 205 -70.5 304t-239.5 99t-239 -99t-70 -306zM264 1206l209 287h191l210 -287h-178l-127 185 l-127 -185h-178z" />
<glyph unicode="&#xf5;" d="M72 532q0 564 495 564q500 0 500 -564q0 -557 -500 -557q-135 0 -232.5 39.5t-154 114.5t-82.5 174t-26 229zM225 1239q0 221 195 221q49 0 92 -14t68 -31t59.5 -31t69.5 -14q45 0 64.5 21.5t25.5 68.5h112q0 -108 -42.5 -165.5t-139.5 -57.5q-47 0 -91.5 14.5t-74 32.5 t-67.5 32.5t-72 14.5q-43 0 -62.5 -22t-27.5 -70h-109zM260 535q0 -206 69.5 -305t239.5 -99q168 0 239 99.5t71 306.5q0 205 -70.5 304t-239.5 99t-239 -99t-70 -306z" />
<glyph unicode="&#xf6;" d="M72 532q0 564 495 564q500 0 500 -564q0 -557 -500 -557q-135 0 -232.5 39.5t-154 114.5t-82.5 174t-26 229zM260 535q0 -206 69.5 -305t239.5 -99q168 0 239 99.5t71 306.5q0 205 -70.5 304t-239.5 99t-239 -99t-70 -306zM281 1350q0 65 25 90.5t89 25.5q65 0 91 -26 t26 -90t-26 -89.5t-91 -25.5q-64 0 -89 25t-25 90zM627 1350q0 65 25 90.5t89 25.5q65 0 91 -26t26 -90t-26 -89.5t-91 -25.5q-64 0 -89 25t-25 90z" />
<glyph unicode="&#xf7;" horiz-adv-x="1196" d="M90 508v158h1014v-158h-1014zM475 221q0 68 27 95.5t94 27.5q68 0 95.5 -28t27.5 -95t-27.5 -94t-95.5 -27t-94.5 27t-26.5 94zM475 950q0 68 27 95.5t94 27.5q68 0 95.5 -27.5t27.5 -95.5q0 -67 -27.5 -94t-95.5 -27t-94.5 26.5t-26.5 94.5z" />
<glyph unicode="&#xf8;" d="M53 8l115 137q-96 136 -96 387q0 564 495 564q198 0 324 -95l104 125l88 -73l-114 -133q98 -137 98 -388q0 -557 -500 -557q-201 0 -321 91l-107 -127zM260 535q0 -206 69.5 -305t239.5 -99q168 0 239 99.5t71 306.5q0 205 -70.5 304t-239.5 99t-239 -99t-70 -306z" />
<glyph unicode="&#xf9;" d="M137 301v766h180v-698q0 -143 43 -191.5t156 -48.5q167 0 235 83.5t68 272.5v582h180v-1067h-168v135q-60 -88 -139.5 -125t-208.5 -37q-81 0 -139.5 14.5t-106.5 49.5t-73 101t-27 163zM264 1493h240l166 -287h-150z" />
<glyph unicode="&#xfa;" d="M137 301v766h180v-698q0 -143 43 -191.5t156 -48.5q167 0 235 83.5t68 272.5v582h180v-1067h-168v135q-60 -88 -139.5 -125t-208.5 -37q-81 0 -139.5 14.5t-106.5 49.5t-73 101t-27 163zM469 1206l166 287h235l-249 -287h-152z" />
<glyph unicode="&#xfb;" d="M137 301v766h180v-698q0 -143 43 -191.5t156 -48.5q167 0 235 83.5t68 272.5v582h180v-1067h-168v135q-60 -88 -139.5 -125t-208.5 -37q-81 0 -139.5 14.5t-106.5 49.5t-73 101t-27 163zM264 1206l209 287h191l210 -287h-178l-127 185l-127 -185h-178z" />
<glyph unicode="&#xfc;" d="M137 301v766h180v-698q0 -143 43 -191.5t156 -48.5q167 0 235 83.5t68 272.5v582h180v-1067h-168v135q-60 -88 -139.5 -125t-208.5 -37q-81 0 -139.5 14.5t-106.5 49.5t-73 101t-27 163zM281 1350q0 65 25 90.5t89 25.5q65 0 91 -26t26 -90t-26 -89.5t-91 -25.5 q-64 0 -89 25t-25 90zM627 1350q0 65 25 90.5t89 25.5q65 0 91 -26t26 -90t-26 -89.5t-91 -25.5q-64 0 -89 25t-25 90z" />
<glyph unicode="&#xfd;" horiz-adv-x="1024" d="M25 1067h202q99 -423 289 -868l293 868h192l-391 -1061q-27 -73 -45 -119.5t-40 -96t-38.5 -78t-38 -57t-42.5 -43t-48.5 -26.5t-57.5 -16t-69 -4q-30 0 -57 2.5t-39 5.5l-12 2v168q43 -12 100 -12q71 0 106 45t95 205q-262 577 -399 1085zM412 1206l166 287h235 l-250 -287h-151z" />
<glyph unicode="&#xfe;" d="M125 -418v1886h180v-528q24 31 37 46t42.5 40.5t58 37.5t75 22t103.5 10q226 0 334 -138.5t108 -408.5q0 -99 -14 -182t-48 -157.5t-87 -125.5t-135 -81t-187 -30q-75 0 -143 19v155q45 -18 126 -18q169 0 234 92.5t65 317.5q0 100 -12 169t-42 124t-86.5 81.5 t-141.5 26.5q-162 0 -224.5 -101.5t-62.5 -318.5v-938h-180z" />
<glyph unicode="&#xff;" horiz-adv-x="1024" d="M25 1067h202q99 -423 289 -868l293 868h192l-391 -1061q-27 -73 -45 -119.5t-40 -96t-38.5 -78t-38 -57t-42.5 -43t-48.5 -26.5t-57.5 -16t-69 -4q-30 0 -57 2.5t-39 5.5l-12 2v168q43 -12 100 -12q71 0 106 45t95 205q-262 577 -399 1085zM223 1350q0 65 25.5 90.5 t89.5 25.5q65 0 91 -26t26 -90t-26 -89.5t-91 -25.5q-64 0 -89.5 25.5t-25.5 89.5zM569 1350q0 65 25.5 90.5t89.5 25.5q65 0 91 -26t26 -90t-26 -89.5t-91 -25.5q-64 0 -89.5 25.5t-25.5 89.5z" />
<glyph unicode="&#x152;" horiz-adv-x="2048" d="M86 733q0 96 7 177t25 161.5t47 143.5t75.5 118.5t108 92t146.5 57t189 20.5q286 0 401 -160v125h879v-172h-682v-1124h696v-172h-893v125q-112 -160 -395 -160q-107 0 -194 21.5t-149 59t-108.5 94t-75.5 119.5t-46.5 143.5t-24 159t-6.5 171.5zM289 735 q0 -159 18.5 -266t63.5 -183t122.5 -110.5t194.5 -34.5t194.5 34t122.5 109.5t63.5 182t18.5 264.5q0 162 -19 271t-65.5 184t-123 108t-191.5 33q-117 0 -194.5 -34t-122.5 -110t-63.5 -182.5t-18.5 -265.5zM1425 670v172h500v-172h-500z" />
<glyph unicode="&#x153;" horiz-adv-x="1933" d="M70 532q0 564 497 564q287 0 406 -191q112 191 405 191q256 0 362.5 -148t106.5 -469h-639v152h455q-6 78 -19.5 129.5t-44.5 95t-86 64t-137 20.5q-88 0 -144 -18t-95 -65.5t-55.5 -127.5t-16.5 -205q0 -223 68.5 -309t250.5 -86q129 0 194 43.5t79 157.5h182 q-6 -58 -21.5 -106.5t-49.5 -96.5t-84 -80.5t-130.5 -53t-183.5 -20.5q-153 0 -250.5 44.5t-150.5 134.5q-120 -179 -400 -179q-136 0 -234 39.5t-155 115.5t-83.5 175t-26.5 229zM258 532q0 -205 70 -304t241 -99q168 0 239 99.5t71 306.5q0 205 -70.5 305t-239.5 100 t-240 -100.5t-71 -307.5z" />
<glyph unicode="&#x178;" horiz-adv-x="1366" d="M20 1468h234q171 -346 426 -700q245 333 430 700h231q-268 -473 -565 -868v-600h-196v600q-290 386 -560 868zM393 1739q0 65 25.5 90.5t89.5 25.5q65 0 91 -26t26 -90t-26 -89.5t-91 -25.5q-64 0 -89.5 25t-25.5 90zM739 1739q0 65 25.5 90.5t89.5 25.5q65 0 91 -26 t26 -90t-26 -89.5t-91 -25.5q-64 0 -89.5 25t-25.5 90z" />
<glyph unicode="&#x2c6;" horiz-adv-x="681" d="M35 1206l209 287h190l211 -287h-178l-127 185l-127 -185h-178z" />
<glyph unicode="&#x2dc;" horiz-adv-x="681" d="M-2 1239q0 221 195 221q49 0 92 -14t68 -31t59 -31t69 -14q45 0 64.5 21.5t25.5 68.5h113q0 -108 -42.5 -165.5t-139.5 -57.5q-47 0 -91.5 14.5t-74 32.5t-67.5 32.5t-72 14.5q-43 0 -63 -22.5t-28 -69.5h-108z" />
<glyph unicode="&#x2000;" horiz-adv-x="963" />
<glyph unicode="&#x2001;" horiz-adv-x="1927" />
<glyph unicode="&#x2002;" horiz-adv-x="963" />
<glyph unicode="&#x2003;" horiz-adv-x="1927" />
<glyph unicode="&#x2004;" horiz-adv-x="642" />
<glyph unicode="&#x2005;" horiz-adv-x="481" />
<glyph unicode="&#x2006;" horiz-adv-x="321" />
<glyph unicode="&#x2007;" horiz-adv-x="321" />
<glyph unicode="&#x2008;" horiz-adv-x="240" />
<glyph unicode="&#x2009;" horiz-adv-x="385" />
<glyph unicode="&#x200a;" horiz-adv-x="107" />
<glyph unicode="&#x2010;" horiz-adv-x="681" d="M80 463v182h520v-182h-520z" />
<glyph unicode="&#x2011;" horiz-adv-x="681" d="M80 463v182h520v-182h-520z" />
<glyph unicode="&#x2012;" horiz-adv-x="681" d="M80 463v182h520v-182h-520z" />
<glyph unicode="&#x2013;" d="M57 479v150h1024v-150h-1024z" />
<glyph unicode="&#x2014;" horiz-adv-x="2048" d="M-4 479v150h2056v-150h-2056z" />
<glyph unicode="&#x2018;" horiz-adv-x="454" d="M113 1155q0 193 44 262.5t171 69.5v-107q-52 0 -72 -25.5t-20 -105.5q67 0 93.5 -26.5t26.5 -94.5t-26.5 -95t-93.5 -27q-43 0 -68.5 9t-37 31.5t-14.5 44.5t-3 64z" />
<glyph unicode="&#x2019;" horiz-adv-x="454" d="M96 1364q0 68 27 95.5t94 27.5q34 0 57.5 -7t36.5 -18t19.5 -32.5t8 -40.5t1.5 -52q0 -193 -44 -262t-171 -69v106q52 0 72 25.5t20 105.5q-67 0 -94 26.5t-27 94.5z" />
<glyph unicode="&#x201a;" horiz-adv-x="454" d="M96 104q0 68 27 95.5t94 27.5q43 0 68.5 -9t37 -31.5t14.5 -44.5t3 -64q0 -193 -44 -262.5t-171 -69.5v107q52 0 72 25.5t20 105.5q-68 0 -94.5 26.5t-26.5 93.5z" />
<glyph unicode="&#x201c;" horiz-adv-x="681" d="M59 1155q0 193 44 262.5t171 69.5v-107q-52 0 -72 -25.5t-20 -105.5q68 0 94.5 -26.5t26.5 -94.5t-27 -95t-94 -27q-43 0 -68.5 9t-37 31.5t-14.5 44.5t-3 64zM387 1155q0 193 44 262.5t171 69.5v-107q-52 0 -72 -25.5t-20 -105.5q68 0 94.5 -26.5t26.5 -94.5t-27 -95 t-94 -27q-43 0 -68.5 9t-37 31.5t-14.5 44.5t-3 64z" />
<glyph unicode="&#x201d;" horiz-adv-x="681" d="M45 1364q0 68 27 95.5t94 27.5q34 0 57.5 -7t36.5 -18t19.5 -32.5t8 -40.5t1.5 -52q0 -193 -44 -262t-171 -69v106q52 0 72 25.5t20 105.5q-68 0 -94.5 26.5t-26.5 94.5zM373 1364q0 68 27 95.5t94 27.5q34 0 57.5 -7t36 -18t19 -32.5t8 -40t1.5 -52.5q0 -193 -44 -262 t-171 -69v106q52 0 72.5 25.5t20.5 105.5q-68 0 -94.5 26.5t-26.5 94.5z" />
<glyph unicode="&#x201e;" horiz-adv-x="681" d="M45 104q0 68 27 95.5t94 27.5q43 0 68.5 -9t37 -31.5t14.5 -44.5t3 -64q0 -193 -44 -262.5t-171 -69.5v107q52 0 72 25.5t20 105.5q-68 0 -94.5 26.5t-26.5 93.5zM373 104q0 68 27 95.5t94 27.5q43 0 68.5 -9t36.5 -31.5t14 -44.5t3 -64q0 -193 -44 -262.5t-171 -69.5 v107q52 0 72.5 25.5t20.5 105.5q-68 0 -94.5 26.5t-26.5 93.5z" />
<glyph unicode="&#x2022;" horiz-adv-x="716" d="M59 729q0 157 71 228t228 71t228 -71t71 -228q0 -156 -71.5 -227.5t-227.5 -71.5q-157 0 -228 71t-71 228z" />
<glyph unicode="&#x2026;" horiz-adv-x="2048" d="M217 104q0 68 27 95.5t94 27.5q68 0 95.5 -27.5t27.5 -95.5q0 -67 -27.5 -93.5t-95.5 -26.5t-94.5 26.5t-26.5 93.5zM901 104q0 68 27 95.5t94 27.5q68 0 95.5 -27.5t27.5 -95.5q0 -67 -27.5 -93.5t-95.5 -26.5t-94.5 26.5t-26.5 93.5zM1583 104q0 68 27 95.5t94 27.5 q68 0 95.5 -27.5t27.5 -95.5q0 -67 -27.5 -93.5t-95.5 -26.5t-94.5 26.5t-26.5 93.5z" />
<glyph unicode="&#x202f;" horiz-adv-x="385" />
<glyph unicode="&#x2039;" horiz-adv-x="681" d="M147 492v122l304 304l100 -101l-264 -264l264 -264l-100 -101z" />
<glyph unicode="&#x203a;" horiz-adv-x="681" d="M127 289l264 264l-264 264l100 101l303 -304v-122l-303 -304z" />
<glyph unicode="&#x205f;" horiz-adv-x="481" />
<glyph unicode="&#x20ac;" d="M23 489l43 144h835l-41 -144h-485q7 -103 25 -168.5t56 -109t96.5 -61t149.5 -17.5q125 0 212.5 36.5t136.5 88.5v-205q-94 -46 -175.5 -65t-181.5 -19q-134 0 -226 29t-151.5 94.5t-91 160t-45.5 236.5h-157zM23 774l45 144h108q18 148 51 243.5t95 161t154.5 95.5 t232.5 36q269 0 399 -127q-27 -86 -57 -190q-62 80 -137.5 116.5t-192.5 36.5q-180 0 -258 -86t-92 -286h616l-41 -144h-923z" />
<glyph unicode="&#x2122;" horiz-adv-x="2048" d="M137 1346v122h670v-122h-670zM401 635v608h142v-608h-142zM934 635v833h221l229 -440l224 440h219v-833h-141v684l-248 -479h-111l-252 483v-688h-141z" />
<glyph unicode="&#x25fc;" horiz-adv-x="1064" d="M0 0v1065h1065v-1065h-1065z" />
<glyph unicode="&#xfb01;" horiz-adv-x="1024" d="M23 915v152h153v100q0 64 2.5 104.5t12 81.5t26.5 63.5t46 41t71 26t102 7.5q35 0 66 -2.5t45 -4.5l14 -3v-160q-53 6 -96 6q-64 0 -86.5 -27t-22.5 -112v-121h189v-152h-189v-915h-180v915h-153zM682 1366q0 65 25.5 91t89.5 26t90 -26t26 -91q0 -64 -25.5 -89.5 t-90.5 -25.5t-90 25.5t-25 89.5zM707 0v1067h180v-1067h-180z" />
<glyph unicode="&#xfb02;" horiz-adv-x="1024" d="M23 915v152h153v100q0 64 2.5 104.5t12 81.5t26.5 63.5t46 41t71 26t102 7.5q35 0 66 -2.5t45 -4.5l14 -3v-160q-53 6 -96 6q-64 0 -86.5 -27t-22.5 -112v-121h189v-152h-189v-915h-180v915h-153zM702 0v1468h181v-1468h-181z" />
</font>
</defs>
</svg>
